<svg width="42" height="42" viewBox="0 0 42 42" fill="none" xmlns="http://www.w3.org/2000/svg">
<path d="M21 29.75C25.8325 29.75 29.75 25.8325 29.75 21C29.75 16.1675 25.8325 12.25 21 12.25C16.1675 12.25 12.25 16.1675 12.25 21C12.25 25.8325 16.1675 29.75 21 29.75Z" stroke="#2E2BBC" stroke-width="3" stroke-linecap="round" stroke-linejoin="round"/>
<path d="M19.25 5.25H22.75M21 12.25V5.25V12.25Z" stroke="#2E2BBC" stroke-width="3" stroke-linecap="round" stroke-linejoin="round"/>
<path d="M30.8995 8.62563L33.3744 11.1005M27.1872 14.8128L32.1369 9.86307L27.1872 14.8128Z" stroke="#2E2BBC" stroke-width="3" stroke-linecap="round" stroke-linejoin="round"/>
<path d="M36.75 19.25V22.75M29.75 21H36.75H29.75Z" stroke="#2E2BBC" stroke-width="3" stroke-linecap="round" stroke-linejoin="round"/>
<path d="M33.3744 30.8995L30.8995 33.3744M27.1872 27.1872L32.1369 32.1369L27.1872 27.1872Z" stroke="#2E2BBC" stroke-width="3" stroke-linecap="round" stroke-linejoin="round"/>
<path d="M22.75 36.75H19.25M21 29.75V36.75V29.75Z" stroke="#2E2BBC" stroke-width="3" stroke-linecap="round" stroke-linejoin="round"/>
<path d="M11.1005 33.3744L8.62564 30.8995M14.8128 27.1872L9.86307 32.1369L14.8128 27.1872Z" stroke="#2E2BBC" stroke-width="3" stroke-linecap="round" stroke-linejoin="round"/>
<path d="M5.25 22.75L5.25 19.25M12.25 21H5.25H12.25Z" stroke="#2E2BBC" stroke-width="3" stroke-linecap="round" stroke-linejoin="round"/>
<path d="M8.62563 11.1005L11.1005 8.62563M14.8128 14.8128L9.86307 9.86307L14.8128 14.8128Z" stroke="#2E2BBC" stroke-width="3" stroke-linecap="round" stroke-linejoin="round"/>
</svg>
