<svg width="24" height="24" viewBox="0 0 24 24" fill="none" xmlns="http://www.w3.org/2000/svg">
<path d="M12 17C14.7614 17 17 14.7614 17 12C17 9.23858 14.7614 7 12 7C9.23858 7 7 9.23858 7 12C7 14.7614 9.23858 17 12 17Z" stroke="#2E2BBC" stroke-width="2" stroke-linecap="round" stroke-linejoin="round"/>
<path d="M11 3H13M12 7V3V7Z" stroke="#2E2BBC" stroke-width="2" stroke-linecap="round" stroke-linejoin="round"/>
<path d="M17.6569 4.92893L19.0711 6.34315M15.5355 8.46447L18.364 5.63604L15.5355 8.46447Z" stroke="#2E2BBC" stroke-width="2" stroke-linecap="round" stroke-linejoin="round"/>
<path d="M21 11V13M17 12H21H17Z" stroke="#2E2BBC" stroke-width="2" stroke-linecap="round" stroke-linejoin="round"/>
<path d="M19.0711 17.6569L17.6569 19.0711M15.5355 15.5355L18.364 18.364L15.5355 15.5355Z" stroke="#2E2BBC" stroke-width="2" stroke-linecap="round" stroke-linejoin="round"/>
<path d="M13 21H11M12 17V21V17Z" stroke="#2E2BBC" stroke-width="2" stroke-linecap="round" stroke-linejoin="round"/>
<path d="M6.34315 19.0711L4.92893 17.6569M8.46447 15.5355L5.63604 18.364L8.46447 15.5355Z" stroke="#2E2BBC" stroke-width="2" stroke-linecap="round" stroke-linejoin="round"/>
<path d="M3 13L3 11M7 12H3H7Z" stroke="#2E2BBC" stroke-width="2" stroke-linecap="round" stroke-linejoin="round"/>
<path d="M4.92893 6.34315L6.34315 4.92893M8.46447 8.46447L5.63604 5.63604L8.46447 8.46447Z" stroke="#2E2BBC" stroke-width="2" stroke-linecap="round" stroke-linejoin="round"/>
<rect width="24" height="24" stroke="black"/>
</svg>
